<?xml version="1.0" standalone="no"?>
<!DOCTYPE svg PUBLIC "-//W3C//DTD SVG 20010904//EN"
 "http://www.w3.org/TR/2001/REC-SVG-20010904/DTD/svg10.dtd">
<svg version="1.0" xmlns="http://www.w3.org/2000/svg"
 width="1000.000000pt" height="1000.000000pt" viewBox="0 0 1000.000000 1000.000000"
 preserveAspectRatio="xMidYMid meet">
<metadata>
Created by potrace 1.16, written by Peter Selinger 2001-2019
</metadata>
<g transform="translate(0.000000,1000.000000) scale(0.100000,-0.100000)"
fill="#000000" stroke="none">
<path d="M7920 8648 c0 -6 -9 -8 -20 -5 -17 4 -18 2 -9 -15 9 -17 8 -19 -10
-13 -16 5 -19 3 -15 -8 6 -16 -28 -33 -45 -23 -5 3 -12 -1 -15 -10 -4 -12 -2
-15 9 -10 15 5 19 -5 16 -33 -2 -7 2 -10 8 -7 5 4 12 2 16 -3 3 -6 -4 -8 -15
-6 -12 2 -23 -2 -26 -10 -3 -7 -12 -16 -19 -19 -9 -3 -12 0 -8 10 3 7 9 14 13
14 15 0 4 33 -12 36 -11 1 -14 -4 -11 -16 3 -10 0 -27 -7 -39 -9 -17 -8 -22 6
-28 9 -3 20 0 24 7 5 8 9 9 14 1 4 -6 2 -11 -3 -11 -23 0 -8 -18 62 -75 96
-79 326 -304 444 -434 641 -707 1039 -1655 1113 -2651 15 -202 13 -403 -4
-445 -41 -97 -184 -99 -225 -3 -15 35 -20 79 -24 243 -13 478 -122 1005 -304
1465 -243 614 -623 1142 -1143 1591 -95 82 -128 105 -138 97 -9 -8 -11 -7 -6
6 3 9 2 16 -3 16 -12 0 -38 -43 -35 -60 2 -12 1 -12 -6 -2 -10 14 -45 5 -36
-9 3 -5 -4 -9 -16 -9 -17 0 -19 -3 -11 -19 13 -24 4 -32 -25 -25 -15 4 -24 2
-24 -6 0 -6 -5 -8 -10 -5 -8 5 -7 11 1 21 6 8 7 14 2 14 -14 0 -47 -70 -37
-79 5 -5 54 -46 109 -92 423 -351 741 -750 984 -1238 334 -669 492 -1472 518
-2626 6 -311 -3 -547 -38 -914 -30 -315 -36 -338 -106 -368 -47 -19 -95 -10
-136 27 -31 28 -32 30 -32 112 0 46 8 162 18 258 59 593 47 1225 -34 1865 -69
546 -135 829 -276 1185 -198 502 -465 915 -817 1265 -173 172 -360 327 -384
318 -11 -5 -13 -3 -7 8 7 12 6 12 -7 1 -14 -11 -17 -10 -21 3 -4 12 -5 11 -3
-2 1 -10 6 -18 13 -18 6 0 15 -4 20 -9 5 -5 3 -6 -4 -2 -8 4 -13 2 -13 -6 0
-10 -3 -9 -10 2 -5 8 -12 11 -16 7 -4 -3 -1 -15 7 -24 7 -10 9 -15 5 -11 -5 4
-16 2 -24 -5 -13 -9 -14 -9 -8 1 4 6 3 12 -2 12 -6 0 -30 -23 -54 -52 -23 -29
-38 -49 -32 -45 7 4 18 -1 25 -10 8 -9 9 -14 2 -10 -6 4 -14 1 -16 -5 -4 -11
-6 -11 -6 0 -1 9 -5 10 -20 0 -17 -10 -9 -20 88 -96 131 -105 400 -374 502
-502 351 -441 574 -914 684 -1455 30 -147 75 -420 75 -453 0 -93 -104 -152
-189 -108 -47 25 -61 59 -87 219 -52 319 -118 581 -195 775 -121 304 -299 614
-495 862 -151 191 -530 539 -570 523 -8 -3 -13 -12 -10 -19 8 -20 -12 -17 -30
5 -10 11 -24 17 -37 13 -13 -3 -18 -1 -13 6 3 6 2 14 -4 17 -6 4 -9 1 -8 -7 2
-7 -4 -12 -12 -10 -11 3 -10 -2 4 -17 14 -15 23 -18 36 -11 11 6 17 5 17 -3 0
-7 2 -19 4 -27 3 -10 -2 -14 -13 -12 -10 2 -18 -2 -18 -8 0 -6 -4 -8 -10 -5
-5 3 -10 0 -10 -7 0 -10 -2 -10 -9 1 -7 11 -9 11 -14 0 -5 -12 -6 -12 -6 0 -1
11 -4 11 -16 1 -11 -9 -12 -17 -4 -32 8 -15 8 -19 0 -14 -6 4 -11 1 -11 -7 0
-8 -12 -18 -26 -21 -24 -7 -21 -10 58 -70 124 -95 133 -106 133 -177 0 -52 -3
-62 -30 -89 -32 -32 -85 -47 -128 -36 -13 3 -67 37 -120 76 -54 39 -97 67 -97
63 0 -5 -5 0 -11 10 -10 18 -69 21 -69 4 0 -5 10 -5 21 -2 16 5 19 4 14 -6 -6
-8 -4 -11 6 -7 10 4 15 -1 15 -13 0 -17 -2 -17 -18 -2 -18 16 -48 12 -48 -7 0
-5 -7 -10 -15 -10 -8 0 -15 7 -15 15 0 8 -4 15 -10 15 -5 0 -9 -10 -9 -22 0
-13 -2 -33 -6 -45 -4 -14 -2 -23 7 -26 7 -2 6 -3 -3 -2 -23 3 -49 -15 -31 -22
6 -2 12 -9 12 -15 0 -6 -9 -3 -20 7 -16 15 -18 21 -7 34 11 14 10 14 -5 2 -10
-7 -27 -11 -38 -8 -11 3 -17 1 -14 -4 3 -5 -2 -12 -10 -15 -9 -3 -16 -10 -16
-16 0 -5 5 -6 10 -3 6 3 13 -1 16 -9 3 -9 10 -13 15 -10 15 9 10 24 -7 24 -8
0 -12 5 -9 10 10 16 35 12 35 -6 0 -9 5 -12 13 -8 6 4 4 -2 -6 -13 -12 -14
-15 -23 -8 -28 6 -3 11 -3 11 2 0 4 4 3 8 -3 4 -6 54 -46 111 -89 415 -312
710 -763 841 -1284 84 -336 142 -769 155 -1166 l7 -180 -155 328 c-152 321
-155 329 -166 425 -88 728 -275 1143 -689 1532 -105 98 -114 110 -154 198
l-42 93 -163 -163 c-90 -90 -163 -167 -163 -172 0 -8 411 -894 1413 -3043
l435 -933 -1579 0 -1579 0 -272 544 -272 544 -254 -544 -255 -544 -623 0
c-343 0 -624 3 -624 6 0 3 59 132 131 287 73 155 143 307 156 337 23 52 4 35
-346 -314 -256 -256 -371 -378 -373 -394 -5 -39 -127 -142 -186 -157 -32 -9
-51 -9 -59 -3 -7 6 -13 7 -13 3 0 -5 -9 0 -19 9 -15 14 -21 15 -28 4 -4 -7
-17 -13 -28 -13 -12 0 -21 -8 -23 -20 -3 -20 -3 -20 13 -1 8 11 15 18 16 15 0
-2 2 -14 5 -27 3 -19 0 -22 -21 -18 -14 3 -25 0 -25 -5 0 -5 5 -9 12 -9 6 0 2
-9 -10 -21 -12 -11 -20 -24 -17 -30 4 -5 1 -9 -6 -9 -7 0 -9 8 -6 21 5 17 3
18 -11 7 -13 -11 -15 -10 -10 10 4 12 2 20 -3 17 -5 -4 -8 -17 -7 -30 1 -13 6
-21 10 -19 4 3 8 -2 8 -11 0 -9 -4 -14 -8 -11 -5 3 -6 -8 -4 -25 3 -17 0 -29
-7 -29 -6 0 -10 8 -9 17 1 10 0 27 -2 38 -2 15 -4 12 -9 -10 -8 -32 13 -70 32
-58 6 3 7 1 3 -6 -17 -27 382 -439 604 -622 1013 -838 2287 -1210 3593 -1048
1261 156 2416 833 3182 1864 910 1224 1165 2828 680 4280 -197 591 -509 1136
-914 1597 -127 145 -379 393 -505 498 -85 72 -116 90 -116 68z m-705 -1938
c62 0 269 -327 389 -612 140 -335 233 -780 280 -1338 40 -473 50 -725 37 -985
-12 -275 -39 -596 -50 -608 -4 -4 -54 92 -112 214 l-104 222 3 326 c6 556 -36
1026 -133 1509 -85 423 -200 700 -432 1040 -48 70 -55 119 -28 172 20 39 89
75 123 64 8 -2 20 -4 27 -4z m1171 -2065 c50 -33 55 -53 64 -252 34 -718 -27
-1412 -185 -2127 -62 -280 -86 -361 -120 -396 -49 -51 -122 -51 -174 0 -37 38
-45 83 -27 160 12 52 23 71 71 121 68 72 101 141 116 244 10 72 8 87 -16 186
l-27 109 25 167 c27 172 47 346 69 578 8 81 12 321 13 640 0 477 1 513 18 539
36 54 116 68 173 31z m-6383 -2554 c26 -17 76 -36 131 -49 48 -12 90 -22 91
-24 5 -5 -182 -171 -208 -185 -60 -34 -156 -1 -183 62 -19 46 -18 61 7 109 17
34 98 116 115 116 3 0 24 -13 47 -29z m925 -90 c-10 -28 -199 -243 -312 -355
-147 -146 -202 -186 -256 -186 -50 0 -101 36 -119 84 -25 67 -7 96 184 290
l170 173 168 2 c100 0 167 -3 165 -8z m641 -13 c-53 -100 -279 -402 -394 -528
-123 -133 -266 -280 -290 -296 -56 -40 -160 0 -183 71 -21 65 -9 90 112 215
183 189 334 371 431 518 l28 42 154 0 154 0 -12 -22z m621 17 c0 -11 -81 -167
-131 -252 -148 -251 -321 -482 -544 -727 -98 -107 -148 -140 -200 -130 -72 13
-125 87 -110 154 4 18 63 94 153 197 81 92 178 208 216 256 82 105 235 333
291 435 l40 72 143 0 c78 0 142 -2 142 -5z m600 -20 c-22 -59 -174 -349 -243
-465 -189 -317 -499 -732 -597 -798 -63 -43 -151 -13 -179 61 -25 66 -11 93
145 289 80 101 178 231 219 289 98 140 248 388 321 533 l59 116 142 0 143 0
-10 -25z m590 21 c0 -27 -188 -429 -276 -588 -184 -337 -473 -763 -547 -808
-98 -60 -222 30 -187 135 6 19 49 86 96 150 236 322 448 685 594 1018 l43 97
138 0 c77 0 139 -2 139 -4z m570 -8 c0 -34 -167 -425 -275 -643 -179 -361
-415 -749 -475 -780 -90 -46 -200 27 -187 125 3 24 37 86 95 176 128 198 230
380 341 604 78 157 189 412 224 513 6 15 22 17 142 17 98 0 135 -3 135 -12z
m570 2 c0 -23 -136 -383 -206 -547 -137 -321 -348 -723 -409 -781 -29 -27 -43
-32 -81 -32 -41 0 -51 5 -86 40 -38 38 -40 43 -36 88 4 34 25 83 81 183 173
311 321 638 437 967 l33 92 133 0 c87 0 134 -4 134 -10z m565 -2 c-2 -7 -25
-78 -51 -158 -105 -327 -325 -861 -390 -947 -70 -92 -224 -39 -224 77 0 17 25
86 56 153 119 256 272 646 319 812 10 33 19 63 22 68 2 4 65 7 138 7 103 0
133 -3 130 -12z m543 -60 c-32 -114 -126 -401 -175 -534 -55 -152 -79 -179
-158 -179 -48 0 -59 4 -86 31 -54 54 -51 83 29 310 38 109 82 240 96 289 15
50 32 105 37 123 l11 32 133 0 133 0 -20 -72z"/>
<path d="M4947 5542 c-31 -31 -124 -223 -483 -992 -244 -524 -443 -954 -441
-956 2 -2 429 -3 949 -2 l945 3 -112 240 c-62 132 -269 575 -460 985 -191 410
-350 748 -354 752 -4 5 -24 -9 -44 -30z"/>
</g>
</svg>
